# xmcd
#
# Track frame offsets:
#	150
#	14366
#	31227
#	50772
#	67868
#	87942
#	107333
#	123027
#	142232
#	162771
#	185275
#
# Disc length: 2662 seconds
#
# Revision: 0
# Processed by: cddbd v1.5.2PL0 Copyright (c) Steve Scherf et al.
# Submitted via: dBpowerAMP V4.0
#
DISCID=860a640b
DTITLE=S Morgan - Sarah Karaoke
DYEAR=2006
DGENRE=Country
TTITLE0=I've Got Better Things To Do
TTITLE1=I Feel Lucky
TTITLE2=Two Sparrows In A Hurricane
TTITLE3=Jesus Take The Wheel
TTITLE4=I Hope You Dance
TTITLE5=Blessed
TTITLE6=But I Do Love You
TTITLE7=Some Kind Of Wonderful
TTITLE8=Angel
TTITLE9=I Will Remember You
TTITLE10=Let Er Rip
EXTD=
EXTT0=
EXTT1=
EXTT2=
EXTT3=
EXTT4=
EXTT5=
EXTT6=
EXTT7=
EXTT8=
EXTT9=
EXTT10=
PLAYORDER=
